<?xml version="1.0" encoding="UTF-8" standalone="no"?>
<!-- Created with Inkscape (http://www.inkscape.org/) -->

<svg
   width="32.0px"
   height="32.0px"
   viewBox="0 0 32.0 32.0"
   version="1.1"
   id="SVGRoot"
   sodipodi:docname="ico.svg"
   inkscape:version="1.2.1 (9c6d41e, 2022-07-14)"
   inkscape:export-filename="../content/magics/favicon.png"
   inkscape:export-xdpi="96"
   inkscape:export-ydpi="96"
   xmlns:inkscape="http://www.inkscape.org/namespaces/inkscape"
   xmlns:sodipodi="http://sodipodi.sourceforge.net/DTD/sodipodi-0.dtd"
   xmlns="http://www.w3.org/2000/svg"
   xmlns:svg="http://www.w3.org/2000/svg">
  <sodipodi:namedview
     id="namedview298"
     pagecolor="#ffffff"
     bordercolor="#000000"
     borderopacity="0.25"
     inkscape:showpageshadow="2"
     inkscape:pageopacity="0.0"
     inkscape:pagecheckerboard="0"
     inkscape:deskcolor="#d1d1d1"
     inkscape:document-units="px"
     showgrid="true"
     inkscape:zoom="6.1691598"
     inkscape:cx="16.128614"
     inkscape:cy="16.128614"
     inkscape:window-width="1512"
     inkscape:window-height="945"
     inkscape:window-x="0"
     inkscape:window-y="37"
     inkscape:window-maximized="0"
     inkscape:current-layer="layer1">
    <inkscape:grid
       type="xygrid"
       id="grid304" />
  </sodipodi:namedview>
  <defs
     id="defs293" />
  <g
     inkscape:label="Warstwa 1"
     inkscape:groupmode="layer"
     id="layer1">
    <rect
       style="fill:#ffffff;stroke:#000000;stroke-width:2.3;stroke-dasharray:none;fill-opacity:1"
       id="rect902"
       width="30"
       height="30"
       x="1"
       y="1" />
    <text
       xml:space="preserve"
       style="font-style:normal;font-variant:normal;font-weight:100;font-stretch:normal;font-size:42.66666667px;font-family:'Roboto Slab';-inkscape-font-specification:'Roboto Slab Thin';text-align:center;text-anchor:middle;fill:none;stroke:#000000;stroke-width:5"
       x="5"
       y="10"
       id="text840"><tspan
         sodipodi:role="line"
         id="tspan838"
         x="5"
         y="10" /></text>
    <g
       aria-label="jd"
       transform="scale(1.0495592,0.95278093)"
       id="text844"
       style="font-weight:100;font-size:13.5633px;font-family:'Roboto Slab';-inkscape-font-specification:'Roboto Slab Thin';text-align:center;text-anchor:middle;fill:none;stroke:#000000;stroke-width:0.79473">
      <path
         d="m 8.0735206,23.405718 q -0.198681,0 -0.370872,-0.03311 -0.17219,-0.03311 -0.370871,-0.09934 l 0.08609,-0.344381 q 0.119209,0.03974 0.298022,0.07947 0.185436,0.03974 0.357626,0.03974 0.728497,0 1.1258597,-0.509948 0.403985,-0.503326 0.403985,-1.437127 V 13.70346 H 8.5238596 v -0.357626 h 1.4371267 v 7.755188 q 0,1.105992 -0.496703,1.702035 -0.4967027,0.602666 -1.3907677,0.602666 z M 9.4444203,11.107355 v -0.927179 h 0.476835 v 0.927179 z"
         id="path1707"
         style="stroke-width:1.59500001;stroke-dasharray:none" />
      <path
         d="m 19.3535,20.650037 q -0.841039,0 -1.443669,-0.437074 -0.602632,-0.437074 -0.927122,-1.238378 -0.317871,-0.807917 -0.317871,-1.913849 v -0.139062 q 0,-1.132421 0.317871,-1.966836 0.32449,-0.834406 0.927122,-1.28473 0.609262,-0.456941 1.45691,-0.456941 0.847658,0 1.456912,0.390719 0.609258,0.3841 0.97348,1.059569 V 10.537759 H 20.717694 V 10.18015 h 1.079439 0.357607 v 9.973213 h 1.079435 v 0.357606 h -1.423793 l -0.01321,-1.145664 q -0.350984,0.589389 -0.973485,0.940368 -0.622497,0.344364 -1.47015,0.344364 z m -0.0069,-0.3576 q 0.933746,0 1.549625,-0.423838 0.622501,-0.423823 0.900635,-1.13241 v -3.35752 q -0.258151,-0.768187 -0.834291,-1.284724 -0.576143,-0.523167 -1.602603,-0.523167 -0.761565,0 -1.278108,0.42383 -0.51654,0.423824 -0.781435,1.178775 -0.264893,0.754943 -0.264893,1.748291 v 0.139062 q 0,1.483407 0.582767,2.357553 0.589384,0.874148 1.728425,0.874148 z"
         id="path1709"
         style="stroke-width:1.59500001;stroke-dasharray:none" />
    </g>
  </g>
</svg>
