<?xml version="1.0" encoding="UTF-8" standalone="no"?>
<!-- Created with Inkscape (http://www.inkscape.org/) -->

<svg
   width="300"
   height="300"
   viewBox="0 0 300 300"
   version="1.1"
   id="svg5"
   inkscape:version="1.2.1 (9c6d41e, 2022-07-14)"
   sodipodi:docname="logo.svg"
   xmlns:inkscape="http://www.inkscape.org/namespaces/inkscape"
   xmlns:sodipodi="http://sodipodi.sourceforge.net/DTD/sodipodi-0.dtd"
   xmlns="http://www.w3.org/2000/svg"
   xmlns:svg="http://www.w3.org/2000/svg">
  <sodipodi:namedview
     id="namedview7"
     pagecolor="#ffffff"
     bordercolor="#000000"
     borderopacity="0.25"
     inkscape:showpageshadow="2"
     inkscape:pageopacity="0.0"
     inkscape:pagecheckerboard="0"
     inkscape:deskcolor="#d1d1d1"
     inkscape:document-units="px"
     showgrid="false"
     inkscape:zoom="1.6691276"
     inkscape:cx="148.58061"
     inkscape:cy="179.43505"
     inkscape:window-width="1512"
     inkscape:window-height="945"
     inkscape:window-x="0"
     inkscape:window-y="37"
     inkscape:window-maximized="0"
     inkscape:current-layer="g414" />
  <defs
     id="defs2" />
  <g
     inkscape:label="Warstwa 1"
     inkscape:groupmode="layer"
     id="layer1">
    <text
       xml:space="preserve"
       style="font-style:normal;font-variant:normal;font-weight:600;font-stretch:normal;font-family:'Roboto Slab';-inkscape-font-specification:'Roboto Slab Semi-Bold';text-align:center;letter-spacing:4px;word-spacing:0px;writing-mode:lr-tb;text-anchor:middle;white-space:pre;inline-size:37.1566;fill:#000000"
       x="118.26875"
       y="124.61599"
       id="text113" />
    <text
       xml:space="preserve"
       style="font-style:normal;font-variant:normal;font-weight:600;font-stretch:normal;font-family:'Roboto Slab';-inkscape-font-specification:'Roboto Slab Semi-Bold';text-align:center;letter-spacing:4px;writing-mode:lr-tb;text-anchor:middle;fill:#000000;word-spacing:0px"
       x="138.99477"
       y="130.60715"
       id="text281"><tspan
         sodipodi:role="line"
         x="138.99477"
         y="130.60715"
         id="tspan293" /></text>
    <g
       aria-label="jak
dak
on
line
"
       id="text305"
       style="font-weight:600;font-family:'Roboto Slab';-inkscape-font-specification:'Roboto Slab Semi-Bold';text-align:center;letter-spacing:4px;word-spacing:0px;text-anchor:middle">
      <g
         id="g414"
         transform="matrix(4.6783259,0,0,4.6783259,-476.37892,-463.87553)">
        <g
           id="g1294"
           transform="translate(0.12764869)">
          <path
             d="m 121.64079,115.79335 q -0.22851,0 -0.41601,-0.0234 -0.1875,-0.0234 -0.38672,-0.0762 l 0.082,-1.20703 q 0.11719,0.0293 0.26953,0.0527 0.1582,0.0234 0.30469,0.0234 0.33984,0 0.52734,-0.27539 0.19336,-0.26953 0.19336,-0.75586 v -5.49609 l -0.92578,-0.17578 v -0.9668 h 2.51367 v 6.63867 q 0,1.08399 -0.57422,1.66992 -0.56836,0.5918 -1.58789,0.5918 z m 0.49805,-10.28906 v -1.41211 h 1.65234 v 1.41211 z"
             id="path377" />
          <path
             d="m 131.74626,113.35585 q -0.95508,0 -1.50586,-0.49805 -0.54492,-0.5039 -0.54492,-1.37695 0,-0.59766 0.32227,-1.04883 0.32812,-0.45703 0.96093,-0.70898 0.63868,-0.25781 1.55274,-0.25781 h 0.90234 v -0.49805 q 0,-0.48047 -0.28711,-0.77344 -0.28125,-0.29297 -0.83203,-0.29297 -0.29883,0 -0.53906,0.0762 -0.23438,0.0703 -0.42188,0.20508 l -0.13476,0.84961 h -1.16016 l -0.0117,-1.60547 q 0.48047,-0.29297 1.05469,-0.46875 0.58008,-0.18164 1.28906,-0.18164 1.22462,0 1.92774,0.57422 0.70898,0.56836 0.70898,1.63477 v 2.70117 q 0,0.1289 0,0.25195 0.006,0.12305 0.0234,0.24024 l 0.65039,0.0937 v 0.96093 h -2.02148 q -0.0645,-0.18164 -0.12305,-0.36914 -0.0527,-0.19336 -0.0762,-0.38672 -0.31055,0.39258 -0.74414,0.63868 -0.42774,0.24023 -0.99024,0.24023 z m 0.39258,-1.20117 q 0.4043,0 0.75587,-0.1875 0.35741,-0.1875 0.53906,-0.47461 v -1.03125 h -0.9082 q -0.61524,0 -0.93164,0.28711 -0.31055,0.28125 -0.31055,0.66797 0,0.35156 0.22266,0.54492 0.22265,0.19336 0.6328,0.19336 z"
             id="path379" />
          <path
             d="m 139.53142,113.2328 v -0.96093 l 0.85547,-0.17579 v -6.86132 l -0.91993,-0.17578 v -0.9668 h 2.50782 v 8.0039 l 0.78515,0.17579 v 0.96093 z m 4.04297,0 v -0.92578 l 0.52148,-0.10547 -0.0117,-0.0234 -1.38281,-1.83985 0.99023,-1.07812 2.17969,2.83593 0.81445,0.17579 v 0.96093 z m -1.75782,-1.75195 -0.73828,-0.94922 2.75391,-2.5664 0.0176,-0.0234 -0.65625,-0.0879 v -0.96094 h 3.17578 v 0.9668 l -0.81445,0.19922 z"
             id="path381" />
        </g>
        <g
           id="g1289"
           transform="translate(-0.19754631,2.51953)">
          <path
             d="m 122.07146,128.35585 q -0.75586,0 -1.30078,-0.38672 -0.54493,-0.38672 -0.83789,-1.08398 -0.28711,-0.70313 -0.28711,-1.63477 v -0.12305 q 0,-1.00195 0.28711,-1.75781 0.29296,-0.75586 0.83789,-1.17187 0.54492,-0.42188 1.29492,-0.42188 0.53906,0 0.9375,0.21094 0.39844,0.20508 0.68554,0.5918 v -2.34375 l -0.91992,-0.17578 v -0.9668 h 0.91992 1.59375 v 8.0039 l 0.84961,0.17579 v 0.96093 h -2.22656 l -0.12305,-0.76757 q -0.29882,0.43945 -0.7207,0.66796 -0.42187,0.22266 -0.99023,0.22266 z m 0.46289,-1.24805 q 0.39258,0 0.67969,-0.16992 0.2871,-0.16992 0.4746,-0.48633 v -2.74218 q -0.18164,-0.32227 -0.46875,-0.50391 -0.2871,-0.18164 -0.67382,-0.18164 -0.45118,0 -0.74414,0.26953 -0.28711,0.26367 -0.42774,0.73828 -0.13476,0.46875 -0.13476,1.0957 v 0.12305 q 0,0.86133 0.30468,1.35938 0.30469,0.49804 0.99024,0.49804 z"
             id="path383" />
          <path
             d="m 132.95184,128.35585 q -0.95508,0 -1.50586,-0.49805 -0.54493,-0.5039 -0.54493,-1.37695 0,-0.59766 0.32227,-1.04883 0.32812,-0.45703 0.96094,-0.70898 0.63867,-0.25781 1.55273,-0.25781 h 0.90235 v -0.49805 q 0,-0.48047 -0.28711,-0.77344 -0.28125,-0.29297 -0.83204,-0.29297 -0.29882,0 -0.53906,0.0762 -0.23437,0.0703 -0.42187,0.20508 l -0.13477,0.84961 h -1.16015 l -0.0117,-1.60547 q 0.48047,-0.29297 1.05468,-0.46875 0.58008,-0.18164 1.28907,-0.18164 1.22462,0 1.92773,0.57422 0.70899,0.56836 0.70899,1.63477 v 2.70117 q 0,0.1289 0,0.25195 0.006,0.12305 0.0234,0.24024 l 0.65039,0.0937 v 0.96093 h -2.02148 q -0.0644,-0.18164 -0.12305,-0.36914 -0.0527,-0.19336 -0.0762,-0.38672 -0.31055,0.39258 -0.74414,0.63868 -0.42773,0.24023 -0.99023,0.24023 z m 0.39258,-1.20117 q 0.40429,0 0.75585,-0.1875 0.35742,-0.1875 0.53908,-0.47461 v -1.03125 h -0.90821 q -0.61523,0 -0.93164,0.28711 -0.31055,0.28125 -0.31055,0.66797 0,0.35156 0.22266,0.54492 0.22266,0.19336 0.63281,0.19336 z"
             id="path385" />
          <path
             d="m 141.37419,128.2328 v -0.96093 l 0.85547,-0.17579 v -6.86132 l -0.91992,-0.17578 v -0.9668 h 2.50781 v 8.0039 l 0.78516,0.17579 v 0.96093 z m 4.04297,0 v -0.92578 l 0.52148,-0.10547 -0.0117,-0.0234 -1.38282,-1.83985 0.99024,-1.07812 2.17969,2.83593 0.81445,0.17579 v 0.96093 z m -1.75781,-1.75195 -0.73828,-0.94922 2.7539,-2.5664 0.0176,-0.0234 -0.65625,-0.0879 v -0.96094 h 3.17578 v 0.9668 l -0.81445,0.19922 z"
             id="path387" />
        </g>
        <g
           id="g1284"
           transform="translate(-0.19755631,-0.08203)">
          <path
             d="m 128.15837,143.35585 q -0.93164,0 -1.59375,-0.41016 -0.66211,-0.41015 -1.01953,-1.13671 -0.35742,-0.73243 -0.35742,-1.68165 v -0.12304 q 0,-0.94336 0.35742,-1.66992 0.35742,-0.72657 1.01953,-1.14258 0.66211,-0.41602 1.58203,-0.41602 0.92578,0 1.58789,0.41602 0.66211,0.41015 1.01367,1.13672 0.35743,0.72656 0.35743,1.67578 v 0.12304 q 0,0.94922 -0.35743,1.68165 -0.35156,0.72656 -1.01367,1.13671 -0.66211,0.41016 -1.57617,0.41016 z m 0,-1.22461 q 0.46289,0 0.76172,-0.25195 0.30469,-0.25196 0.45117,-0.70313 0.14649,-0.45703 0.14649,-1.04883 v -0.12304 q 0,-0.58594 -0.14649,-1.03711 -0.14648,-0.45117 -0.45117,-0.70313 -0.30469,-0.25781 -0.77344,-0.25781 -0.46875,0 -0.77344,0.25781 -0.29882,0.25196 -0.44531,0.70313 -0.14648,0.45117 -0.14648,1.03711 v 0.12304 q 0,0.59766 0.14648,1.04883 0.14649,0.45117 0.45117,0.70313 0.30469,0.25195 0.7793,0.25195 z"
             id="path389" />
          <path
             d="m 135.83806,143.2328 v -0.96093 l 0.84961,-0.17579 v -4.06054 l -0.91406,-0.17578 v -0.9668 h 2.39062 l 0.0762,0.91406 q 0.31641,-0.48633 0.78516,-0.75586 0.47461,-0.27539 1.07226,-0.27539 0.95508,0 1.49414,0.60352 0.54493,0.59765 0.54493,1.88086 v 2.83593 l 0.84961,0.17579 v 0.96093 h -3.22852 v -0.96093 l 0.7793,-0.17579 v -2.82421 q 0,-0.67969 -0.26953,-0.96094 -0.26954,-0.28711 -0.80274,-0.28711 -0.39844,0 -0.69726,0.17578 -0.29297,0.16992 -0.48633,0.48633 v 3.41015 l 0.75,0.17579 v 0.96093 z"
             id="path391" />
        </g>
        <g
           id="g1276"
           transform="translate(-0.00711131)">
          <path
             d="m 117.48192,158.2328 v -0.96093 l 0.85547,-0.17579 v -6.86132 l -0.91992,-0.17578 v -0.9668 h 2.51367 v 8.0039 l 0.85547,0.17579 v 0.96093 z"
             id="path393" />
          <path
             d="m 127.00613,158.2328 v -0.96093 l 0.84961,-0.17579 v -4.06054 l -0.91992,-0.17578 v -0.9668 h 2.51367 v 5.20312 l 0.84961,0.17579 v 0.96093 z m 0.79102,-7.72851 v -1.41211 h 1.65234 v 1.41211 z"
             id="path395" />
          <path
             d="m 134.59087,158.2328 v -0.96093 l 0.84961,-0.17579 v -4.06054 l -0.91406,-0.17578 v -0.9668 h 2.39062 l 0.0762,0.91406 q 0.31641,-0.48633 0.78516,-0.75586 0.47461,-0.27539 1.07226,-0.27539 0.95508,0 1.49414,0.60352 0.54493,0.59765 0.54493,1.88086 v 2.83593 l 0.84961,0.17579 v 0.96093 h -3.22852 v -0.96093 l 0.7793,-0.17579 v -2.82421 q 0,-0.67969 -0.26953,-0.96094 -0.26954,-0.28711 -0.80274,-0.28711 -0.39844,0 -0.69726,0.17578 -0.29297,0.16992 -0.48633,0.48633 v 3.41015 l 0.75,0.17579 v 0.96093 z"
             id="path397" />
          <path
             d="m 147.90318,158.35585 q -0.90234,0 -1.57617,-0.39844 -0.66797,-0.40429 -1.03711,-1.10742 -0.36914,-0.70898 -0.36914,-1.61719 v -0.24023 q 0,-0.93164 0.35156,-1.6582 0.35742,-0.73243 0.99609,-1.14258 0.63868,-0.41602 1.47657,-0.41602 0.86132,0 1.44726,0.34571 0.58594,0.33984 0.88477,0.97851 0.29883,0.63867 0.29883,1.53516 v 0.88476 h -3.80274 l -0.0117,0.0352 q 0.0234,0.45703 0.20508,0.81445 0.18164,0.35156 0.50977,0.55664 0.32812,0.20508 0.79687,0.20508 0.49805,0 0.9082,-0.12891 0.41602,-0.1289 0.79102,-0.38085 l 0.45703,0.99023 q -0.38086,0.31641 -0.9668,0.5332 -0.58593,0.21094 -1.35937,0.21094 z m -1.3125,-3.91992 h 2.28516 v -0.15235 q 0,-0.39843 -0.11719,-0.6914 -0.11719,-0.29883 -0.36328,-0.46289 -0.24024,-0.16406 -0.62696,-0.16406 -0.35156,0 -0.60351,0.19335 -0.25196,0.1875 -0.39844,0.51563 -0.14648,0.32227 -0.19336,0.73242 z"
             id="path399" />
        </g>
      </g>
      <rect
         style="fill:none;stroke:#000000;stroke-width:5.84791;stroke-dasharray:none;stroke-opacity:1"
         id="rect468"
         width="294.54456"
         height="294.54456"
         x="2.5315053"
         y="2.5315053" />
    </g>
  </g>
</svg>
